<?xml version="1.0" encoding="utf-8"?>
<!-- Generator: Adobe Illustrator 26.5.0, SVG Export Plug-In . SVG Version: 6.00 Build 0)  -->
<svg version="1.1" id="レイヤー_1" xmlns="http://www.w3.org/2000/svg" xmlns:xlink="http://www.w3.org/1999/xlink" x="0px"
	 y="0px" viewBox="0 0 196 303.8" style="enable-background:new 0 0 196 303.8;" xml:space="preserve">
<style type="text/css">
	.st0{fill:none;stroke:#FFFFFF;stroke-width:2.135;stroke-miterlimit:10;}
	.st1{fill:#FFFFFF;}
	.st2{fill:none;stroke:#FFFFFF;stroke-width:2.203;stroke-linecap:round;stroke-linejoin:round;stroke-miterlimit:10;}
	.st3{fill:none;stroke:#FFFFFF;stroke-width:2.017;stroke-linecap:round;stroke-linejoin:round;stroke-miterlimit:10;}
	.st4{fill:none;stroke:#FFFFFF;stroke-width:2.182;stroke-linecap:round;stroke-linejoin:round;stroke-miterlimit:10;}
</style>
<circle class="st0" cx="43.2" cy="257.9" r="11.7"/>
<circle class="st0" cx="83.4" cy="257.9" r="11.7"/>
<line class="st0" x1="1.1" y1="236.4" x2="1.1" y2="270.5"/>
<line class="st0" x1="22" y1="236.4" x2="22" y2="270.5"/>
<line class="st0" x1="1.7" y1="252.5" x2="20.8" y2="252.5"/>
<line class="st0" x1="63.4" y1="236.4" x2="63.4" y2="270.5"/>
<circle class="st0" cx="143" cy="257.9" r="11.7"/>
<circle class="st0" cx="183.2" cy="257.9" r="11.7"/>
<line class="st0" x1="163.2" y1="236.4" x2="163.2" y2="270.5"/>
<line class="st0" x1="104" y1="236.4" x2="104" y2="270.5"/>
<path class="st0" d="M104,255.3c0-5.2,4.2-9.3,9.3-9.3s9.3,4.2,9.3,9.3v15.2"/>
<path class="st1" d="M43.4,300.3v-12.3h2.6c1.8,0,3.2,0.1,4,0.4c1.2,0.4,2.1,1.1,2.8,2.2c0.7,1,1,2.3,1,3.7c0,1.2-0.3,2.3-0.8,3.3
	c-0.5,0.9-1.2,1.6-2.1,2.1c-0.9,0.4-2,0.7-3.6,0.7H43.4z M44.5,299.1H46c1.7,0,2.9-0.1,3.5-0.3c0.9-0.3,1.7-0.8,2.2-1.6
	c0.5-0.8,0.8-1.7,0.8-2.9c0-1.2-0.3-2.2-0.9-3c-0.6-0.8-1.4-1.4-2.4-1.7c-0.8-0.2-2-0.4-3.8-0.4h-0.9V299.1z"/>
<path class="st1" d="M65.4,290.9c1.4,0,2.6,0.5,3.5,1.5c0.8,0.9,1.3,2,1.3,3.3c0,1.3-0.4,2.4-1.3,3.3c-0.9,1-2,1.4-3.4,1.4
	c-1.4,0-2.5-0.5-3.4-1.4c-0.9-1-1.3-2.1-1.3-3.3c0-1.3,0.4-2.4,1.3-3.3C62.8,291.4,64,290.9,65.4,290.9 M65.4,292.1
	c-1,0-1.8,0.4-2.5,1.1c-0.7,0.7-1.1,1.6-1.1,2.6c0,0.7,0.2,1.3,0.5,1.8c0.3,0.6,0.8,1,1.3,1.3c0.5,0.3,1.1,0.5,1.8,0.5
	c0.7,0,1.2-0.2,1.8-0.5s1-0.8,1.3-1.3c0.3-0.6,0.5-1.2,0.5-1.8c0-1-0.4-1.9-1.1-2.6C67.2,292.4,66.4,292.1,65.4,292.1"/>
<path class="st1" d="M85.4,291.2h1.2v7.3c0,1.3-0.1,2.2-0.3,2.8c-0.3,0.8-0.8,1.5-1.6,1.9c-0.8,0.5-1.7,0.7-2.7,0.7
	c-0.8,0-1.5-0.1-2.1-0.3c-0.6-0.2-1.1-0.5-1.5-0.9c-0.4-0.4-0.8-0.9-1.1-1.6h1.3c0.3,0.6,0.8,1.1,1.3,1.3c0.5,0.3,1.2,0.4,2,0.4
	c0.8,0,1.5-0.2,2-0.4c0.6-0.3,0.9-0.7,1.2-1.1c0.2-0.5,0.4-1.2,0.4-2.2v-0.5c-0.4,0.6-1,1-1.6,1.3c-0.6,0.3-1.3,0.4-2,0.4
	c-0.8,0-1.6-0.2-2.4-0.6c-0.7-0.4-1.3-1-1.7-1.7c-0.4-0.7-0.6-1.5-0.6-2.3c0-0.8,0.2-1.6,0.6-2.4c0.4-0.7,1-1.3,1.7-1.7
	c0.7-0.4,1.5-0.6,2.3-0.6c0.7,0,1.3,0.1,1.9,0.4c0.6,0.3,1.2,0.7,1.7,1.4V291.2z M81.9,292c-0.7,0-1.3,0.2-1.9,0.5
	c-0.6,0.3-1,0.8-1.3,1.3c-0.3,0.6-0.5,1.2-0.5,1.8c0,1,0.3,1.8,1,2.5c0.7,0.7,1.5,1,2.6,1c1.1,0,1.9-0.3,2.6-1c0.7-0.6,1-1.5,1-2.6
	c0-0.7-0.2-1.3-0.5-1.8c-0.3-0.5-0.7-1-1.3-1.3C83.1,292.2,82.5,292,81.9,292"/>
<polygon class="st1" points="102.3,287.9 103.7,287.9 107.8,297.5 111.9,287.9 113.3,287.9 107.9,300.3 107.6,300.3 "/>
<path class="st1" d="M120.7,287.4c0.3,0,0.5,0.1,0.7,0.3c0.2,0.2,0.3,0.4,0.3,0.7c0,0.3-0.1,0.5-0.3,0.7c-0.2,0.2-0.4,0.3-0.7,0.3
	c-0.3,0-0.5-0.1-0.7-0.3c-0.2-0.2-0.3-0.4-0.3-0.7c0-0.3,0.1-0.5,0.3-0.7C120.2,287.5,120.4,287.4,120.7,287.4 M120.1,291.2h1.2v9.1
	h-1.2V291.2z"/>
<rect x="128.7" y="287.6" class="st1" width="1.2" height="12.6"/>
<rect x="137.3" y="287.6" class="st1" width="1.2" height="12.6"/>
<path class="st1" d="M155.2,291.2v9.1H154v-1.6c-0.5,0.6-1,1-1.7,1.4c-0.6,0.3-1.3,0.5-2,0.5c-1.3,0-2.4-0.5-3.3-1.4
	c-0.9-0.9-1.4-2.1-1.4-3.4c0-1.3,0.5-2.4,1.4-3.4c0.9-0.9,2-1.4,3.3-1.4c0.7,0,1.4,0.2,2,0.5c0.6,0.3,1.1,0.8,1.6,1.4v-1.7H155.2z
	 M150.5,292c-0.7,0-1.3,0.2-1.8,0.5c-0.6,0.3-1,0.8-1.3,1.4c-0.3,0.6-0.5,1.2-0.5,1.8c0,0.6,0.2,1.3,0.5,1.8c0.3,0.6,0.8,1,1.3,1.4
	c0.6,0.3,1.2,0.5,1.8,0.5c0.6,0,1.3-0.2,1.8-0.5c0.6-0.3,1-0.8,1.3-1.3c0.3-0.6,0.5-1.2,0.5-1.9c0-1.1-0.3-1.9-1-2.6
	C152.3,292.4,151.5,292,150.5,292"/>
<path class="st2" d="M65.7,199.2c-9.8-5.2-20.4-27.3,5.2-39.7"/>
<path class="st2" d="M78.5,180c0,0,1.5-10,14.1-10c12.6,0,16.9,15.1,10.3,22.9c-3.1,3.7-5.2,6.3-5.2,6.3h6.2c3.1,0,4.8,2.1,5,4.3
	v3.9"/>
<path class="st2" d="M72.5,207.6c0,0-10.2-5.7-8.4-21.8c1.4-12.7,6.6-17.1,14.3-23.5c8.5-7.1,18.7-17.3,21.7-26.1"/>
<path class="st2" d="M108.5,113.4c0,0,16.4,20.6,2.8,26.7c-6.4,2.9-13.6-5.7-14.9-14.2c-1.3-8.9,0.8-15.4,5.9-20.4
	c7.2-7.1,14.7-3,19.1-4.2c2.8-0.8,5.7-2.7,7.3-3.9c0.9-0.7,2.2-0.7,3.1,0.1c2.6,2.1,7,7.1,4.1,14.6c-4,10.4-12,9.9-12,9.9"/>
<path class="st2" d="M129.6,120.5c-9.7,12.9-0.9,29.3-2.1,36c-2.5,14.9-11.1,19.2-10.9,28.8s5.2,14.3,10.9,14.3c3.1,0,4.9,2.2,5,4.5
	v3.6"/>
<line class="st3" x1="18.9" y1="207.8" x2="173.4" y2="207.8"/>
<path class="st4" d="M45.8,207.8C19.5,156.4,24.1,85,77.7,50.9c4.9-3.1,6.7,8.5,3.1,22.6C77.2,87.6,72.5,94,72.5,94
	S92.3,85.6,95,71.7c2.6-13.9-5-21.9-5-21.9s9.1,2.5,16.3,8.4c13.2,10.8,15.6,22.5,15.6,22.5s3.8-19.4-6.3-28.5
	C105.4,43,92,46.5,92,46.5s7.9-9.8,14.6-13.9c16.7-10.4,25.7-6.1,25.7-6.1s-10.2-10.9-24.1-6.9C94.2,23.6,89,39.7,89,39.7
	s5-16.7-3-28.9C78-1.4,62.8,1.3,62.8,1.3s10.9,9.3,15.5,18.2c4.6,8.9,3.7,18.1,3.7,18.1S78,28,62,26.1
	c-16.1-1.8-27.1,14.3-27.1,14.3s9.8-4.6,24.8-3S78.8,44,78.8,44"/>
</svg>
